<?xml version="1.0" encoding="utf-8" standalone="no"?><!DOCTYPE svg PUBLIC "-//W3C//DTD SVG 1.1//EN" "http://www.w3.org/Graphics/SVG/1.1/DTD/svg11.dtd">
<svg preserveAspectRatio="xMinYMin meet" width="100%" height="100%" viewBox="0 0 750.000 562.500"  version="1.1" xmlns="http://www.w3.org/2000/svg" xmlns:xlink="http://www.w3.org/1999/xlink">
  <desc>Matlab Figure Converted by PLOT2SVG written by Juerg Schwizer</desc>
  <g id="topgroup">
  <rect x="0" y="0" width="750.000" height="562.500" fill="#ffffff" stroke="none" />
  <g id ="ID000000">
  <clipPath id="ID000001">
    <rect x="97.500" y="42.187" width="581.250" height="458.438"/>
  </clipPath>
      <polygon fill="#ffffff" fill-opacity="1.00" stroke="none" stroke-width="2.0pt" stroke-opacity="1.00" stroke-dasharray="none" points="97.500,500.625 678.750,500.625 678.750,42.187 97.500,42.187 "/>
      <polygon fill="#ffffff" fill-opacity="1.00" stroke="none" stroke-width="2.0pt" stroke-opacity="1.00" stroke-dasharray="none" points="97.500,42.187 678.750,42.187 678.750,42.187 97.500,42.187 "/>
      <polygon fill="#ffffff" fill-opacity="1.00" stroke="none" stroke-width="2.0pt" stroke-opacity="1.00" stroke-dasharray="none" points="97.500,500.625 97.500,500.625 97.500,42.187 97.500,42.187 "/>
    <g>
<g id="ID000002" clip-path="url(#ID000001)" >
      <polyline fill="none" stroke="#000000" stroke-width="2.0pt" stroke-dasharray="none" points="97.500,440.829 98.635,440.829 99.771,440.829 100.906,440.829 102.041,440.829 103.176,440.829 104.312,440.829 105.447,440.829 106.582,440.829 107.717,440.829 108.853,440.829 109.988,440.829 111.123,440.829 112.258,440.829 113.394,440.829 114.529,440.829 115.664,440.829 116.799,440.829 117.935,440.829 119.070,440.829 120.205,440.829 121.340,440.829 122.476,440.829 123.611,440.829 124.746,440.829 125.881,440.829 127.017,440.829 128.152,440.829 129.287,440.829 130.422,440.829 131.558,440.829 132.693,440.829 133.828,440.829 134.963,440.829 136.099,440.829 137.234,440.829 138.369,440.829 139.504,440.829 140.640,440.829 141.775,440.829 142.910,440.829 144.045,440.829 145.181,440.829 146.316,440.829 147.451,440.829 148.586,440.829 149.722,440.829 150.857,440.829 151.992,440.829 153.127,440.829 154.263,440.829 155.398,440.829 156.533,440.829 157.668,440.829 158.804,440.829 159.939,440.829 161.074,440.829 162.209,440.829 163.345,440.829 164.480,440.829 165.615,440.829 166.750,440.829 167.886,440.829 169.021,440.829 170.156,440.829 171.292,440.829 172.427,440.829 173.562,440.829 174.697,440.829 175.833,440.829 176.968,440.829 178.103,440.829 179.238,440.829 180.374,440.829 181.509,440.829 182.644,440.829 183.779,440.829 184.915,440.829 186.050,440.829 187.185,440.829 188.320,440.829 189.456,440.829 190.591,440.829 191.726,440.829 192.861,440.829 193.997,440.829 195.132,440.829 196.267,440.829 197.402,440.829 198.538,440.829 199.673,440.829 200.808,440.829 201.943,440.829 203.079,440.829 204.214,440.829 205.349,440.829 206.484,440.829 207.620,440.829 208.755,440.829 209.890,440.829 211.025,440.829 212.161,440.829 213.296,440.829 214.431,440.829 215.566,440.829 216.702,440.829 217.837,440.829 218.972,440.829 220.107,440.829 221.243,440.829 222.378,440.829 223.513,440.829 224.648,440.829 225.784,440.829 226.919,440.829 228.054,440.829 229.189,440.829 230.325,440.829 231.460,440.829 232.595,440.829 233.730,440.829 234.866,440.829 236.001,440.829 237.136,440.829 238.271,440.829 239.407,440.829 240.542,440.829 241.677,440.829 242.813,440.829 243.948,440.829 245.083,440.829 246.218,440.829 247.354,440.829 248.489,440.829 249.624,440.829 250.759,440.829 251.895,440.829 253.030,440.829 254.165,440.829 255.300,440.829 256.436,440.829 257.571,440.829 258.706,440.829 259.841,440.829 260.977,440.829 262.112,440.829 263.247,440.829 264.382,440.829 265.518,440.829 266.653,440.829 267.788,440.829 268.923,440.829 270.059,440.829 271.194,440.829 272.329,440.829 273.464,440.829 274.600,440.829 275.735,440.829 276.870,440.829 278.005,440.829 279.141,440.829 280.276,440.829 281.411,440.829 282.546,440.829 283.682,440.829 284.817,440.829 285.952,440.829 287.087,440.829 288.223,440.829 289.358,440.829 290.493,440.829 291.628,440.829 292.764,440.829 293.899,440.829 295.034,440.829 296.169,440.829 297.305,440.829 298.440,440.829 299.575,440.829 300.710,440.829 301.846,440.829 302.981,440.829 304.116,440.829 305.251,440.829 306.387,440.829 307.522,440.829 308.657,440.829 309.792,440.829 310.928,440.829 312.063,440.829 313.198,440.829 314.333,440.829 315.469,440.829 316.604,440.829 317.739,440.829 318.875,440.829 320.010,440.829 321.145,440.829 322.280,440.829 323.416,440.829 324.551,440.829 325.686,440.829 326.821,440.829 327.957,440.829 329.092,440.829 330.227,440.829 331.362,440.829 332.498,440.829 333.633,440.829 334.768,440.829 335.903,440.829 337.039,440.829 338.174,440.829 339.309,440.829 340.444,440.829 341.580,440.829 342.715,440.829 343.850,440.829 344.985,440.829 346.121,440.829 347.256,440.829 348.391,440.829 349.526,440.829 350.662,440.829 351.797,440.829 352.932,440.829 354.067,440.829 355.203,440.829 356.338,440.829 357.473,440.829 358.608,440.829 359.744,440.829 360.879,440.829 362.014,440.829 363.149,440.829 364.285,440.829 365.420,440.829 366.555,440.829 367.690,440.829 368.826,440.829 369.961,440.829 371.096,440.829 372.231,440.829 373.367,440.829 374.502,440.829 375.637,440.829 376.772,440.829 377.908,440.829 379.043,440.829 380.178,440.829 381.313,440.829 382.449,440.829 383.584,440.829 384.719,440.829 385.854,440.829 386.990,440.829 388.125,440.829 389.260,440.829 390.396,440.829 391.531,440.829 392.666,440.829 393.801,440.829 394.937,440.829 396.072,440.829 397.207,440.829 398.342,440.829 399.478,440.829 400.613,440.829 401.748,440.829 402.883,440.829 404.019,440.829 405.154,440.829 406.289,440.829 407.424,440.829 408.560,440.829 409.695,440.829 410.830,440.829 411.965,440.829 413.101,440.829 414.236,440.829 415.371,440.829 416.506,440.829 417.642,440.829 418.777,440.829 419.912,440.829 421.047,440.829 422.183,440.829 423.318,440.829 424.453,440.829 425.588,440.829 426.724,440.829 427.859,440.829 428.994,440.829 430.129,440.829 431.265,440.829 432.400,440.829 433.535,440.829 434.670,440.829 435.806,440.829 436.941,440.829 438.076,440.829 439.211,440.829 440.347,440.829 441.482,440.829 442.617,440.829 443.752,440.829 444.888,440.829 446.023,440.829 447.158,440.829 448.293,440.829 449.429,440.829 450.564,440.829 451.699,440.829 452.834,440.829 453.970,440.829 455.105,440.829 456.240,440.829 457.375,440.829 458.511,440.829 459.646,440.829 460.781,440.829 461.917,440.829 463.052,440.829 464.187,440.829 465.322,440.829 466.458,440.829 467.593,440.829 468.728,440.829 469.863,440.829 470.999,440.829 472.134,440.829 473.269,440.829 474.404,440.829 475.540,440.829 476.675,440.829 477.810,440.829 478.945,440.829 480.081,440.829 481.216,440.829 482.351,440.829 483.486,440.829 484.622,440.829 485.757,440.829 486.892,440.829 488.027,440.829 489.163,440.829 490.298,440.829 491.433,440.829 492.568,440.829 493.704,440.829 494.839,440.829 495.974,440.829 497.109,440.829 498.245,440.829 499.380,440.829 500.515,440.829 501.650,440.829 502.786,440.829 503.921,440.829 505.056,440.829 506.191,440.829 507.327,440.829 508.462,440.829 509.597,440.829 510.732,440.829 511.868,440.829 513.003,440.829 514.138,440.829 515.273,440.829 516.409,440.829 517.544,440.829 518.679,440.829 519.814,440.829 520.950,440.829 522.085,440.829 523.220,440.829 524.355,440.829 525.491,440.829 526.626,440.829 527.761,440.829 528.896,440.829 530.032,440.829 531.167,440.829 532.302,440.829 533.438,440.829 534.573,440.829 535.708,440.829 536.843,440.829 537.979,440.829 539.114,440.829 540.249,440.829 541.384,440.829 542.520,440.829 543.655,440.829 544.790,440.829 545.925,440.829 547.061,440.829 548.196,440.829 549.331,440.829 550.466,440.829 551.602,440.829 552.737,440.829 553.872,440.829 555.007,440.829 556.143,440.829 557.278,440.829 558.413,440.829 559.548,440.829 560.684,440.829 561.819,440.829 562.954,440.829 564.089,440.829 565.225,440.829 566.360,440.829 567.495,440.829 568.630,440.829 569.766,440.829 570.901,440.829 572.036,440.829 573.171,440.829 574.307,440.829 575.442,440.829 576.577,440.829 577.712,440.829 578.848,440.829 579.983,440.829 581.118,440.829 582.253,440.829 583.389,440.829 584.524,440.829 585.659,440.829 586.794,440.829 587.930,440.829 589.065,440.829 590.200,440.829 591.335,440.829 592.471,440.829 593.606,440.829 594.741,440.829 595.876,440.829 597.012,440.829 598.147,440.829 599.282,440.829 600.417,440.829 601.553,440.829 602.688,440.829 603.823,440.829 604.958,440.829 606.094,440.829 607.229,440.829 608.364,440.829 609.500,440.829 610.635,440.829 611.770,440.829 612.905,440.829 614.041,440.829 615.176,440.829 616.311,440.829 617.446,440.829 618.582,440.829 619.717,440.829 620.852,440.829 621.987,440.829 623.123,440.829 624.258,440.829 625.393,440.829 626.528,440.829 627.664,440.829 628.799,440.829 629.934,440.829 631.069,440.829 632.205,440.829 633.340,440.829 634.475,440.829 635.610,440.829 636.746,440.829 637.881,440.829 639.016,440.829 640.151,440.829 641.287,440.829 642.422,440.829 643.557,440.829 644.692,440.829 645.828,440.829 646.963,440.829 648.098,440.829 649.233,440.829 650.369,440.829 651.504,440.829 652.639,440.829 653.774,440.829 654.910,440.829 656.045,440.829 657.180,440.829 658.315,440.829 659.451,440.829 660.586,440.829 661.721,440.829 662.856,440.829 663.992,440.829 665.127,440.829 666.262,440.829 667.397,440.829 668.533,440.829 669.668,440.829 670.803,440.829 671.938,440.829 673.074,440.829 674.209,440.829 675.344,440.829 676.479,440.829 677.615,440.829 678.750,440.829 "/>
<g>
</g>
</g>
<g id="ID000003" clip-path="url(#ID000001)" >
      <polyline fill="none" stroke="#007f00" stroke-width="4.0pt" stroke-dasharray="none" points="97.500,42.325 98.532,43.352 99.564,44.470 100.596,45.675 101.628,46.967 102.660,48.344 103.692,49.802 104.724,51.342 105.756,52.960 106.788,54.655 107.820,56.424 108.853,58.267 109.885,60.180 110.917,62.162 111.949,64.211 112.981,66.325 114.013,68.501 115.045,70.739 116.077,73.035 117.109,75.389 118.141,77.798 119.173,80.259 120.205,82.772 121.237,85.334 122.269,87.943 123.301,90.597 124.333,93.295 125.365,96.035 126.397,98.814 127.429,101.631 128.461,104.484 129.494,107.372 130.526,110.292 131.558,113.242 132.590,116.222 133.622,119.228 134.654,122.261 135.686,125.317 136.718,128.395 137.750,131.494 138.782,134.612 139.814,137.747 140.846,140.898 141.878,144.063 142.910,147.241 143.942,150.431 144.974,153.627 146.006,156.831 147.038,160.042 148.070,163.260 149.102,166.481 150.134,169.706 151.167,172.933 152.199,176.160 153.231,179.387 154.263,182.612 155.295,185.834 156.327,189.052 157.359,192.266 158.391,195.473 159.423,198.673 160.455,201.865 161.487,205.047 162.519,208.220 163.551,211.381 164.583,214.531 165.615,217.664 166.647,220.784 167.679,223.889 168.711,226.979 169.743,230.054 170.775,233.111 171.808,236.152 172.840,239.174 173.872,242.178 174.904,245.162 175.936,248.127 176.968,251.072 178.000,253.995 179.032,256.897 180.064,259.774 181.096,262.627 182.128,265.459 183.160,268.266 184.192,271.051 185.224,273.811 186.256,276.547 187.288,279.258 188.320,281.944 189.352,284.604 190.384,287.240 191.416,289.849 192.449,292.428 193.481,294.981 194.513,297.508 195.545,300.008 196.577,302.481 197.609,304.927 198.641,307.346 199.673,309.737 200.705,312.102 201.737,314.438 202.769,316.744 203.801,319.022 204.833,321.273 205.865,323.496 206.897,325.691 207.929,327.859 208.961,329.999 209.993,332.111 211.025,334.196 212.057,336.254 213.089,338.280 214.122,340.279 215.154,342.251 216.186,344.195 217.218,346.113 218.250,348.003 219.282,349.867 220.314,351.704 221.346,353.510 222.378,355.290 223.410,357.044 224.442,358.772 225.474,360.473 226.506,362.149 227.538,363.799 228.570,365.424 229.602,367.020 230.634,368.590 231.666,370.136 232.698,371.657 233.730,373.154 234.763,374.627 235.795,376.075 236.827,377.500 237.859,378.897 238.891,380.271 239.923,381.622 240.955,382.949 241.987,384.255 243.019,385.537 244.051,386.798 245.083,388.037 246.115,389.250 247.147,390.442 248.179,391.613 249.211,392.762 250.243,393.891 251.275,395.000 252.307,396.084 253.339,397.149 254.371,398.194 255.403,399.219 256.436,400.226 257.468,401.213 258.500,402.178 259.532,403.124 260.564,404.053 261.596,404.963 262.628,405.856 263.660,406.731 264.692,407.586 265.724,408.423 266.756,409.244 267.788,410.048 268.820,410.837 269.852,411.609 270.884,412.362 271.916,413.099 272.948,413.821 273.980,414.529 275.012,415.221 276.044,415.899 277.077,416.559 278.109,417.205 279.141,417.837 280.173,418.456 281.205,419.061 282.237,419.653 283.269,420.229 284.301,420.792 285.333,421.342 286.365,421.880 287.397,422.406 288.429,422.921 289.461,423.419 290.493,423.907 291.525,424.383 292.557,424.849 293.589,425.299 294.621,425.739 295.653,426.169 296.685,426.589 297.718,426.998 298.750,427.398 299.782,427.784 300.814,428.161 301.846,428.529 302.878,428.887 303.910,429.233 304.942,429.570 305.974,429.898 307.006,430.218 308.038,430.526 309.070,430.826 310.102,431.118 311.134,431.403 312.166,431.679 313.198,431.949 314.230,432.207 315.262,432.458 316.294,432.702 317.326,432.939 318.358,433.166 319.391,433.386 320.423,433.600 321.455,433.807 322.487,434.004 323.519,434.196 324.551,434.381 325.583,434.561 326.615,434.732 327.647,434.896 328.679,435.056 329.711,435.210 330.743,435.355 331.775,435.495 332.807,435.631 333.839,435.761 334.871,435.883 335.903,436.000 336.935,436.113 337.967,436.222 338.999,436.322 340.032,436.418 341.064,436.510 342.096,436.598 343.128,436.679 344.160,436.755 345.192,436.828 346.224,436.897 347.256,436.959 348.288,437.018 349.320,437.073 350.352,437.124 351.384,437.169 352.416,437.211 353.448,437.249 354.480,437.285 355.512,437.314 356.544,437.340 357.576,437.364 358.608,437.384 359.640,437.399 360.672,437.410 361.705,437.420 362.737,437.427 363.769,437.427 364.801,437.426 365.833,437.418 366.865,437.409 367.897,437.397 368.929,437.383 369.961,437.364 370.993,437.342 372.025,437.319 373.057,437.294 374.089,437.263 375.121,437.231 376.153,437.193 377.185,437.153 378.217,437.112 379.249,437.070 380.281,437.022 381.313,436.973 382.346,436.919 383.378,436.864 384.410,436.807 385.442,436.749 386.474,436.686 387.506,436.622 388.538,436.557 389.570,436.491 390.602,436.421 391.634,436.349 392.666,436.273 393.698,436.195 394.730,436.117 395.762,436.038 396.794,435.955 397.826,435.871 398.858,435.783 399.890,435.694 400.922,435.604 401.954,435.514 402.987,435.420 404.019,435.325 405.051,435.226 406.083,435.126 407.115,435.023 408.147,434.919 409.179,434.815 410.211,434.711 411.243,434.602 412.275,434.494 413.307,434.382 414.339,434.269 415.371,434.153 416.403,434.037 417.435,433.921 418.467,433.805 419.499,433.686 420.531,433.566 421.563,433.443 422.595,433.321 423.627,433.194 424.660,433.069 425.692,432.943 426.724,432.818 427.756,432.690 428.788,432.562 429.820,432.431 430.852,432.300 431.884,432.167 432.916,432.034 433.948,431.898 434.980,431.763 436.012,431.628 437.044,431.495 438.076,431.358 439.108,431.223 440.140,431.085 441.172,430.947 442.204,430.808 443.236,430.669 444.268,430.528 445.301,430.387 446.333,430.245 447.365,430.104 448.397,429.964 449.429,429.825 450.461,429.685 451.493,429.546 452.525,429.404 453.557,429.265 454.589,429.123 455.621,428.983 456.653,428.842 457.685,428.702 458.717,428.560 459.749,428.420 460.781,428.279 461.813,428.139 462.845,427.999 463.877,427.860 464.909,427.720 465.941,427.582 466.974,427.443 468.006,427.307 469.038,427.169 470.070,427.034 471.102,426.898 472.134,426.765 473.166,426.630 474.198,426.499 475.230,426.367 476.262,426.238 477.294,426.109 478.326,425.982 479.358,425.856 480.390,425.732 481.422,425.608 482.454,425.488 483.486,425.368 484.518,425.251 485.550,425.134 486.582,425.022 487.615,424.909 488.647,424.800 489.679,424.692 490.711,424.588 491.743,424.484 492.775,424.384 493.807,424.286 494.839,424.191 495.871,424.098 496.903,424.009 497.935,423.921 498.967,423.838 499.999,423.752 501.031,423.671 502.063,423.592 503.095,423.518 504.127,423.445 505.159,423.377 506.191,423.311 507.223,423.251 508.256,423.193 509.288,423.140 510.320,423.085 511.352,423.036 512.384,422.989 513.416,422.948 514.448,422.910 515.480,422.878 516.512,422.848 517.544,422.824 518.576,422.799 519.608,422.781 520.640,422.766 521.672,422.757 522.704,422.751 523.736,422.752 524.768,422.752 525.800,422.759 526.832,422.769 527.864,422.786 528.896,422.807 529.929,422.835 530.961,422.862 531.993,422.897 533.025,422.936 534.057,422.982 535.089,423.031 536.121,423.088 537.153,423.146 538.185,423.210 539.217,423.279 540.249,423.356 541.281,423.433 542.313,423.517 543.345,423.606 544.377,423.703 545.409,423.800 546.441,423.905 547.473,424.010 548.505,424.124 549.537,424.241 550.570,424.367 551.602,424.493 552.634,424.628 553.666,424.767 554.698,424.914 555.730,425.061 556.762,425.217 557.794,425.373 558.826,425.537 559.858,425.706 560.890,425.882 561.922,426.059 562.954,426.244 563.986,426.430 565.018,426.624 566.050,426.817 567.082,427.019 568.114,427.221 569.146,427.431 570.178,427.641 571.210,427.859 572.243,428.077 573.275,428.302 574.307,428.528 575.339,428.761 576.371,428.993 577.403,429.233 578.435,429.472 579.467,429.719 580.499,429.965 581.531,430.218 582.563,430.470 583.595,430.729 584.627,430.987 585.659,431.251 586.691,431.510 587.723,431.776 588.755,432.040 589.787,432.310 590.819,432.578 591.851,432.852 592.884,433.120 593.916,433.394 594.948,433.665 595.980,433.942 597.012,434.211 598.044,434.486 599.076,434.754 600.108,435.026 601.140,435.292 602.172,435.561 603.204,435.823 604.236,436.089 605.268,436.347 606.300,436.608 607.332,436.862 608.364,437.118 609.396,437.366 610.428,437.617 611.460,437.855 612.492,438.095 613.525,438.322 614.557,438.552 615.589,438.768 616.621,438.986 617.653,439.190 618.685,439.396 619.717,439.583 620.749,439.772 621.781,439.942 622.813,440.115 623.845,440.178 624.877,440.242 625.909,440.242 "/>
<g>
</g>
</g>
<g id="ID000004" >
  <g transform="translate(387.656,553.500)">
    <g transform="rotate(-0.0)">
      <text x="0.000" y="0.000" font-family="Arial" text-anchor="middle" font-size="21pt" font-weight="bold" fill="#000000" >spatial frequency [line pairs / mm]</text>
    </g>
  </g>
</g>
<g id="ID000005" >
  <g transform="translate(49.688,272.344)">
    <g transform="rotate(-90.0)">
      <text x="0.000" y="0.000" font-family="Arial" text-anchor="middle" font-size="21pt" font-weight="bold" fill="#000000" >MTF [a.u.]</text>
    </g>
  </g>
</g>
<g id="ID000006" >
</g>
    </g>
    <g>
      <polyline fill="none" stroke="#000000" stroke-width="2.0pt" stroke-dasharray="none" points="204.004,500.625 204.004,494.813 "/>
      <polyline fill="none" stroke="#000000" stroke-width="2.0pt" stroke-dasharray="none" points="310.509,500.625 310.509,494.813 "/>
      <polyline fill="none" stroke="#000000" stroke-width="2.0pt" stroke-dasharray="none" points="417.013,500.625 417.013,494.813 "/>
      <polyline fill="none" stroke="#000000" stroke-width="2.0pt" stroke-dasharray="none" points="523.517,500.625 523.517,494.813 "/>
      <polyline fill="none" stroke="#000000" stroke-width="2.0pt" stroke-dasharray="none" points="630.021,500.625 630.021,494.813 "/>
      <polyline fill="none" stroke="#000000" stroke-width="2.0pt" stroke-dasharray="none" points="97.500,500.625 678.750,500.625 "/>
      <polyline fill="none" stroke="#000000" stroke-width="2.0pt" stroke-dasharray="none" points="204.004,42.187 204.004,48.000 "/>
      <polyline fill="none" stroke="#000000" stroke-width="2.0pt" stroke-dasharray="none" points="310.509,42.187 310.509,48.000 "/>
      <polyline fill="none" stroke="#000000" stroke-width="2.0pt" stroke-dasharray="none" points="417.013,42.187 417.013,48.000 "/>
      <polyline fill="none" stroke="#000000" stroke-width="2.0pt" stroke-dasharray="none" points="523.517,42.187 523.517,48.000 "/>
      <polyline fill="none" stroke="#000000" stroke-width="2.0pt" stroke-dasharray="none" points="630.021,42.187 630.021,48.000 "/>
      <polyline fill="none" stroke="#000000" stroke-width="2.0pt" stroke-dasharray="none" points="97.500,42.187 678.750,42.187 "/>
  <g transform="translate(97.500,531.919)">
    <g transform="rotate(-0.0)">
      <text x="0.000" y="0.000" font-family="Symbol" text-anchor="middle" font-size="19pt" font-weight="bold" fill="#000000" >0</text>
    </g>
  </g>
  <g transform="translate(204.004,531.919)">
    <g transform="rotate(-0.0)">
      <text x="0.000" y="0.000" font-family="Symbol" text-anchor="middle" font-size="19pt" font-weight="bold" fill="#000000" >100</text>
    </g>
  </g>
  <g transform="translate(310.509,531.919)">
    <g transform="rotate(-0.0)">
      <text x="0.000" y="0.000" font-family="Symbol" text-anchor="middle" font-size="19pt" font-weight="bold" fill="#000000" >200</text>
    </g>
  </g>
  <g transform="translate(417.013,531.919)">
    <g transform="rotate(-0.0)">
      <text x="0.000" y="0.000" font-family="Symbol" text-anchor="middle" font-size="19pt" font-weight="bold" fill="#000000" >300</text>
    </g>
  </g>
  <g transform="translate(523.517,531.919)">
    <g transform="rotate(-0.0)">
      <text x="0.000" y="0.000" font-family="Symbol" text-anchor="middle" font-size="19pt" font-weight="bold" fill="#000000" >400</text>
    </g>
  </g>
  <g transform="translate(630.021,531.919)">
    <g transform="rotate(-0.0)">
      <text x="0.000" y="0.000" font-family="Symbol" text-anchor="middle" font-size="19pt" font-weight="bold" fill="#000000" >500</text>
    </g>
  </g>
      <polyline fill="none" stroke="#000000" stroke-width="2.0pt" stroke-dasharray="none" points="97.500,440.829 103.313,440.829 "/>
      <polyline fill="none" stroke="#000000" stroke-width="2.0pt" stroke-dasharray="none" points="97.500,361.101 103.313,361.101 "/>
      <polyline fill="none" stroke="#000000" stroke-width="2.0pt" stroke-dasharray="none" points="97.500,281.372 103.313,281.372 "/>
      <polyline fill="none" stroke="#000000" stroke-width="2.0pt" stroke-dasharray="none" points="97.500,201.644 103.313,201.644 "/>
      <polyline fill="none" stroke="#000000" stroke-width="2.0pt" stroke-dasharray="none" points="97.500,121.916 103.313,121.916 "/>
      <polyline fill="none" stroke="#000000" stroke-width="2.0pt" stroke-dasharray="none" points="97.500,500.625 97.500,42.187 "/>
      <polyline fill="none" stroke="#000000" stroke-width="2.0pt" stroke-dasharray="none" points="678.750,440.829 672.938,440.829 "/>
      <polyline fill="none" stroke="#000000" stroke-width="2.0pt" stroke-dasharray="none" points="678.750,361.101 672.938,361.101 "/>
      <polyline fill="none" stroke="#000000" stroke-width="2.0pt" stroke-dasharray="none" points="678.750,281.372 672.938,281.372 "/>
      <polyline fill="none" stroke="#000000" stroke-width="2.0pt" stroke-dasharray="none" points="678.750,201.644 672.938,201.644 "/>
      <polyline fill="none" stroke="#000000" stroke-width="2.0pt" stroke-dasharray="none" points="678.750,121.916 672.938,121.916 "/>
      <polyline fill="none" stroke="#000000" stroke-width="2.0pt" stroke-dasharray="none" points="678.750,500.625 678.750,42.187 "/>
  <g transform="translate(85.875,449.266)">
    <g transform="rotate(-0.0)">
      <text x="0.000" y="0.000" font-family="Symbol" text-anchor="end" font-size="19pt" font-weight="bold" fill="#000000" >0</text>
    </g>
  </g>
  <g transform="translate(85.875,369.538)">
    <g transform="rotate(-0.0)">
      <text x="0.000" y="0.000" font-family="Symbol" text-anchor="end" font-size="19pt" font-weight="bold" fill="#000000" >0.2</text>
    </g>
  </g>
  <g transform="translate(85.875,289.810)">
    <g transform="rotate(-0.0)">
      <text x="0.000" y="0.000" font-family="Symbol" text-anchor="end" font-size="19pt" font-weight="bold" fill="#000000" >0.4</text>
    </g>
  </g>
  <g transform="translate(85.875,210.082)">
    <g transform="rotate(-0.0)">
      <text x="0.000" y="0.000" font-family="Symbol" text-anchor="end" font-size="19pt" font-weight="bold" fill="#000000" >0.6</text>
    </g>
  </g>
  <g transform="translate(85.875,130.353)">
    <g transform="rotate(-0.0)">
      <text x="0.000" y="0.000" font-family="Symbol" text-anchor="end" font-size="19pt" font-weight="bold" fill="#000000" >0.8</text>
    </g>
  </g>
      <polyline fill="none" stroke="#000000" stroke-width="2.0pt" stroke-dasharray="none" points="97.500,500.625 97.500,496.041 "/>
      <polyline fill="none" stroke="#000000" stroke-width="2.0pt" stroke-dasharray="none" points="97.500,500.625 97.500,500.625 "/>
    </g>
  </g>
  </g>
</svg>
