<?xml version="1.0" encoding="utf-8" standalone="no"?>
<!DOCTYPE svg PUBLIC "-//W3C//DTD SVG 1.1//EN"
  "http://www.w3.org/Graphics/SVG/1.1/DTD/svg11.dtd">
<svg xmlns:xlink="http://www.w3.org/1999/xlink" width="743.535pt" height="223.2pt" viewBox="0 0 743.535 223.2" xmlns="http://www.w3.org/2000/svg" version="1.1">
 <metadata>
  <rdf:RDF xmlns:dc="http://purl.org/dc/elements/1.1/" xmlns:cc="http://creativecommons.org/ns#" xmlns:rdf="http://www.w3.org/1999/02/22-rdf-syntax-ns#">
   <cc:Work>
    <dc:type rdf:resource="http://purl.org/dc/dcmitype/StillImage"/>
    <dc:date>2026-05-20T22:40:53.388830</dc:date>
    <dc:format>image/svg+xml</dc:format>
    <dc:creator>
     <cc:Agent>
      <dc:title>Matplotlib v3.10.8, https://matplotlib.org/</dc:title>
     </cc:Agent>
    </dc:creator>
   </cc:Work>
  </rdf:RDF>
 </metadata>
 <defs>
  <style type="text/css">*{stroke-linejoin: round; stroke-linecap: butt}</style>
 </defs>
 <g id="figure_1">
  <g id="patch_1">
   <path d="M 0 223.2 
L 743.535 223.2 
L 743.535 0 
L 0 0 
z
" style="fill: #ffffff"/>
  </g>
  <g id="axes_1">
   <g id="patch_2">
    <path d="M 17.616214 128.304 
L 94.001786 128.304 
L 94.001786 74.016 
L 17.616214 74.016 
z
" clip-path="url(#p584eb990fd)" style="fill: #440154; stroke: #ffffff; stroke-linejoin: miter"/>
   </g>
   <g id="patch_3">
    <path d="M 98.083504 100.7424 
Q 100.943925 100.7424 102.015491 100.7424 
" clip-path="url(#p584eb990fd)" style="fill: none; stroke: #333333; stroke-width: 1.6; stroke-linecap: round"/>
    <path d="M 96.015491 97.7424 
L 102.015491 100.7424 
L 96.015491 103.7424 
" clip-path="url(#p584eb990fd)" style="fill: none; stroke: #333333; stroke-width: 1.6; stroke-linecap: round"/>
   </g>
   <g id="patch_4">
    <path d="M 107.890071 128.304 
L 184.275643 128.304 
L 184.275643 74.016 
L 107.890071 74.016 
z
" clip-path="url(#p584eb990fd)" style="fill: #46327e; stroke: #ffffff; stroke-linejoin: miter"/>
   </g>
   <g id="patch_5">
    <path d="M 188.357361 100.7424 
Q 191.217782 100.7424 192.289348 100.7424 
" clip-path="url(#p584eb990fd)" style="fill: none; stroke: #333333; stroke-width: 1.6; stroke-linecap: round"/>
    <path d="M 186.289348 97.7424 
L 192.289348 100.7424 
L 186.289348 103.7424 
" clip-path="url(#p584eb990fd)" style="fill: none; stroke: #333333; stroke-width: 1.6; stroke-linecap: round"/>
   </g>
   <g id="patch_6">
    <path d="M 198.163929 128.304 
L 274.5495 128.304 
L 274.5495 74.016 
L 198.163929 74.016 
z
" clip-path="url(#p584eb990fd)" style="fill: #365c8d; stroke: #ffffff; stroke-linejoin: miter"/>
   </g>
   <g id="patch_7">
    <path d="M 278.631218 100.7424 
Q 281.491639 100.7424 282.563205 100.7424 
" clip-path="url(#p584eb990fd)" style="fill: none; stroke: #333333; stroke-width: 1.6; stroke-linecap: round"/>
    <path d="M 276.563205 97.7424 
L 282.563205 100.7424 
L 276.563205 103.7424 
" clip-path="url(#p584eb990fd)" style="fill: none; stroke: #333333; stroke-width: 1.6; stroke-linecap: round"/>
   </g>
   <g id="patch_8">
    <path d="M 288.437786 128.304 
L 364.823357 128.304 
L 364.823357 74.016 
L 288.437786 74.016 
z
" clip-path="url(#p584eb990fd)" style="fill: #277f8e; stroke: #ffffff; stroke-linejoin: miter"/>
   </g>
   <g id="patch_9">
    <path d="M 368.905075 100.7424 
Q 371.765496 100.7424 372.837063 100.7424 
" clip-path="url(#p584eb990fd)" style="fill: none; stroke: #333333; stroke-width: 1.6; stroke-linecap: round"/>
    <path d="M 366.837063 97.7424 
L 372.837063 100.7424 
L 366.837063 103.7424 
" clip-path="url(#p584eb990fd)" style="fill: none; stroke: #333333; stroke-width: 1.6; stroke-linecap: round"/>
   </g>
   <g id="patch_10">
    <path d="M 378.711643 128.304 
L 455.097214 128.304 
L 455.097214 74.016 
L 378.711643 74.016 
z
" clip-path="url(#p584eb990fd)" style="fill: #1fa187; stroke: #ffffff; stroke-linejoin: miter"/>
   </g>
   <g id="patch_11">
    <path d="M 459.178933 100.7424 
Q 462.039353 100.7424 463.11092 100.7424 
" clip-path="url(#p584eb990fd)" style="fill: none; stroke: #333333; stroke-width: 1.6; stroke-linecap: round"/>
    <path d="M 457.11092 97.7424 
L 463.11092 100.7424 
L 457.11092 103.7424 
" clip-path="url(#p584eb990fd)" style="fill: none; stroke: #333333; stroke-width: 1.6; stroke-linecap: round"/>
   </g>
   <g id="patch_12">
    <path d="M 468.9855 128.304 
L 545.371071 128.304 
L 545.371071 74.016 
L 468.9855 74.016 
z
" clip-path="url(#p584eb990fd)" style="fill: #4ac16d; stroke: #ffffff; stroke-linejoin: miter"/>
   </g>
   <g id="patch_13">
    <path d="M 549.45279 100.7424 
Q 552.31321 100.7424 553.384777 100.7424 
" clip-path="url(#p584eb990fd)" style="fill: none; stroke: #333333; stroke-width: 1.6; stroke-linecap: round"/>
    <path d="M 547.384777 97.7424 
L 553.384777 100.7424 
L 547.384777 103.7424 
" clip-path="url(#p584eb990fd)" style="fill: none; stroke: #333333; stroke-width: 1.6; stroke-linecap: round"/>
   </g>
   <g id="patch_14">
    <path d="M 559.259357 128.304 
L 635.644929 128.304 
L 635.644929 74.016 
L 559.259357 74.016 
z
" clip-path="url(#p584eb990fd)" style="fill: #a0da39; stroke: #ffffff; stroke-linejoin: miter"/>
   </g>
   <g id="patch_15">
    <path d="M 639.726647 100.7424 
Q 642.587068 100.7424 643.658634 100.7424 
" clip-path="url(#p584eb990fd)" style="fill: none; stroke: #333333; stroke-width: 1.6; stroke-linecap: round"/>
    <path d="M 637.658634 97.7424 
L 643.658634 100.7424 
L 637.658634 103.7424 
" clip-path="url(#p584eb990fd)" style="fill: none; stroke: #333333; stroke-width: 1.6; stroke-linecap: round"/>
   </g>
   <g id="patch_16">
    <path d="M 649.533214 128.304 
L 725.918786 128.304 
L 725.918786 74.016 
L 649.533214 74.016 
z
" clip-path="url(#p584eb990fd)" style="fill: #fde725; stroke: #ffffff; stroke-linejoin: miter"/>
   </g>
   <g id="text_1">
    <!-- science goal -->
    <g style="fill: #ffffff" transform="translate(24.486187 103.190681) scale(0.09 -0.09)">
     <defs>
      <path id="DejaVuSans-Bold-73" d="M 3272 3391 
L 3272 2541 
Q 2913 2691 2578 2766 
Q 2244 2841 1947 2841 
Q 1628 2841 1473 2761 
Q 1319 2681 1319 2516 
Q 1319 2381 1436 2309 
Q 1553 2238 1856 2203 
L 2053 2175 
Q 2913 2066 3209 1816 
Q 3506 1566 3506 1031 
Q 3506 472 3093 190 
Q 2681 -91 1863 -91 
Q 1516 -91 1145 -36 
Q 775 19 384 128 
L 384 978 
Q 719 816 1070 734 
Q 1422 653 1784 653 
Q 2113 653 2278 743 
Q 2444 834 2444 1013 
Q 2444 1163 2330 1236 
Q 2216 1309 1875 1350 
L 1678 1375 
Q 931 1469 631 1722 
Q 331 1975 331 2491 
Q 331 3047 712 3315 
Q 1094 3584 1881 3584 
Q 2191 3584 2531 3537 
Q 2872 3491 3272 3391 
z
" transform="scale(0.015625)"/>
      <path id="DejaVuSans-Bold-63" d="M 3366 3391 
L 3366 2478 
Q 3138 2634 2908 2709 
Q 2678 2784 2431 2784 
Q 1963 2784 1702 2511 
Q 1441 2238 1441 1747 
Q 1441 1256 1702 982 
Q 1963 709 2431 709 
Q 2694 709 2930 787 
Q 3166 866 3366 1019 
L 3366 103 
Q 3103 6 2833 -42 
Q 2563 -91 2291 -91 
Q 1344 -91 809 395 
Q 275 881 275 1747 
Q 275 2613 809 3098 
Q 1344 3584 2291 3584 
Q 2566 3584 2833 3536 
Q 3100 3488 3366 3391 
z
" transform="scale(0.015625)"/>
      <path id="DejaVuSans-Bold-69" d="M 538 3500 
L 1656 3500 
L 1656 0 
L 538 0 
L 538 3500 
z
M 538 4863 
L 1656 4863 
L 1656 3950 
L 538 3950 
L 538 4863 
z
" transform="scale(0.015625)"/>
      <path id="DejaVuSans-Bold-65" d="M 4031 1759 
L 4031 1441 
L 1416 1441 
Q 1456 1047 1700 850 
Q 1944 653 2381 653 
Q 2734 653 3104 758 
Q 3475 863 3866 1075 
L 3866 213 
Q 3469 63 3072 -14 
Q 2675 -91 2278 -91 
Q 1328 -91 801 392 
Q 275 875 275 1747 
Q 275 2603 792 3093 
Q 1309 3584 2216 3584 
Q 3041 3584 3536 3087 
Q 4031 2591 4031 1759 
z
M 2881 2131 
Q 2881 2450 2695 2645 
Q 2509 2841 2209 2841 
Q 1884 2841 1681 2658 
Q 1478 2475 1428 2131 
L 2881 2131 
z
" transform="scale(0.015625)"/>
      <path id="DejaVuSans-Bold-6e" d="M 4056 2131 
L 4056 0 
L 2931 0 
L 2931 347 
L 2931 1631 
Q 2931 2084 2911 2256 
Q 2891 2428 2841 2509 
Q 2775 2619 2662 2680 
Q 2550 2741 2406 2741 
Q 2056 2741 1856 2470 
Q 1656 2200 1656 1722 
L 1656 0 
L 538 0 
L 538 3500 
L 1656 3500 
L 1656 2988 
Q 1909 3294 2193 3439 
Q 2478 3584 2822 3584 
Q 3428 3584 3742 3212 
Q 4056 2841 4056 2131 
z
" transform="scale(0.015625)"/>
      <path id="DejaVuSans-Bold-20" transform="scale(0.015625)"/>
      <path id="DejaVuSans-Bold-67" d="M 2919 594 
Q 2688 288 2409 144 
Q 2131 0 1766 0 
Q 1125 0 706 504 
Q 288 1009 288 1791 
Q 288 2575 706 3076 
Q 1125 3578 1766 3578 
Q 2131 3578 2409 3434 
Q 2688 3291 2919 2981 
L 2919 3500 
L 4044 3500 
L 4044 353 
Q 4044 -491 3511 -936 
Q 2978 -1381 1966 -1381 
Q 1638 -1381 1331 -1331 
Q 1025 -1281 716 -1178 
L 716 -306 
Q 1009 -475 1290 -558 
Q 1572 -641 1856 -641 
Q 2406 -641 2662 -400 
Q 2919 -159 2919 353 
L 2919 594 
z
M 2181 2772 
Q 1834 2772 1640 2515 
Q 1447 2259 1447 1791 
Q 1447 1309 1634 1061 
Q 1822 813 2181 813 
Q 2531 813 2725 1069 
Q 2919 1325 2919 1791 
Q 2919 2259 2725 2515 
Q 2531 2772 2181 2772 
z
" transform="scale(0.015625)"/>
      <path id="DejaVuSans-Bold-6f" d="M 2203 2784 
Q 1831 2784 1636 2517 
Q 1441 2250 1441 1747 
Q 1441 1244 1636 976 
Q 1831 709 2203 709 
Q 2569 709 2762 976 
Q 2956 1244 2956 1747 
Q 2956 2250 2762 2517 
Q 2569 2784 2203 2784 
z
M 2203 3584 
Q 3106 3584 3614 3096 
Q 4122 2609 4122 1747 
Q 4122 884 3614 396 
Q 3106 -91 2203 -91 
Q 1297 -91 786 396 
Q 275 884 275 1747 
Q 275 2609 786 3096 
Q 1297 3584 2203 3584 
z
" transform="scale(0.015625)"/>
      <path id="DejaVuSans-Bold-61" d="M 2106 1575 
Q 1756 1575 1579 1456 
Q 1403 1338 1403 1106 
Q 1403 894 1545 773 
Q 1688 653 1941 653 
Q 2256 653 2472 879 
Q 2688 1106 2688 1447 
L 2688 1575 
L 2106 1575 
z
M 3816 1997 
L 3816 0 
L 2688 0 
L 2688 519 
Q 2463 200 2181 54 
Q 1900 -91 1497 -91 
Q 953 -91 614 226 
Q 275 544 275 1050 
Q 275 1666 698 1953 
Q 1122 2241 2028 2241 
L 2688 2241 
L 2688 2328 
Q 2688 2594 2478 2717 
Q 2269 2841 1825 2841 
Q 1466 2841 1156 2769 
Q 847 2697 581 2553 
L 581 3406 
Q 941 3494 1303 3539 
Q 1666 3584 2028 3584 
Q 2975 3584 3395 3211 
Q 3816 2838 3816 1997 
z
" transform="scale(0.015625)"/>
      <path id="DejaVuSans-Bold-6c" d="M 538 4863 
L 1656 4863 
L 1656 0 
L 538 0 
L 538 4863 
z
" transform="scale(0.015625)"/>
     </defs>
     <use xlink:href="#DejaVuSans-Bold-73"/>
     <use xlink:href="#DejaVuSans-Bold-63" transform="translate(59.521484 0)"/>
     <use xlink:href="#DejaVuSans-Bold-69" transform="translate(118.798828 0)"/>
     <use xlink:href="#DejaVuSans-Bold-65" transform="translate(153.076172 0)"/>
     <use xlink:href="#DejaVuSans-Bold-6e" transform="translate(220.898438 0)"/>
     <use xlink:href="#DejaVuSans-Bold-63" transform="translate(292.089844 0)"/>
     <use xlink:href="#DejaVuSans-Bold-65" transform="translate(351.367188 0)"/>
     <use xlink:href="#DejaVuSans-Bold-20" transform="translate(419.189453 0)"/>
     <use xlink:href="#DejaVuSans-Bold-67" transform="translate(454.003906 0)"/>
     <use xlink:href="#DejaVuSans-Bold-6f" transform="translate(525.585938 0)"/>
     <use xlink:href="#DejaVuSans-Bold-61" transform="translate(594.287109 0)"/>
     <use xlink:href="#DejaVuSans-Bold-6c" transform="translate(661.767578 0)"/>
    </g>
   </g>
   <g id="text_2">
    <!-- array setup -->
    <g style="fill: #ffffff" transform="translate(116.905982 103.155525) scale(0.09 -0.09)">
     <defs>
      <path id="DejaVuSans-Bold-72" d="M 3138 2547 
Q 2991 2616 2845 2648 
Q 2700 2681 2553 2681 
Q 2122 2681 1889 2404 
Q 1656 2128 1656 1613 
L 1656 0 
L 538 0 
L 538 3500 
L 1656 3500 
L 1656 2925 
Q 1872 3269 2151 3426 
Q 2431 3584 2822 3584 
Q 2878 3584 2943 3579 
Q 3009 3575 3134 3559 
L 3138 2547 
z
" transform="scale(0.015625)"/>
      <path id="DejaVuSans-Bold-79" d="M 78 3500 
L 1197 3500 
L 2138 1125 
L 2938 3500 
L 4056 3500 
L 2584 -331 
Q 2363 -916 2067 -1148 
Q 1772 -1381 1288 -1381 
L 641 -1381 
L 641 -647 
L 991 -647 
Q 1275 -647 1404 -556 
Q 1534 -466 1606 -231 
L 1638 -134 
L 78 3500 
z
" transform="scale(0.015625)"/>
      <path id="DejaVuSans-Bold-74" d="M 1759 4494 
L 1759 3500 
L 2913 3500 
L 2913 2700 
L 1759 2700 
L 1759 1216 
Q 1759 972 1856 886 
Q 1953 800 2241 800 
L 2816 800 
L 2816 0 
L 1856 0 
Q 1194 0 917 276 
Q 641 553 641 1216 
L 641 2700 
L 84 2700 
L 84 3500 
L 641 3500 
L 641 4494 
L 1759 4494 
z
" transform="scale(0.015625)"/>
      <path id="DejaVuSans-Bold-75" d="M 500 1363 
L 500 3500 
L 1625 3500 
L 1625 3150 
Q 1625 2866 1622 2436 
Q 1619 2006 1619 1863 
Q 1619 1441 1641 1255 
Q 1663 1069 1716 984 
Q 1784 875 1895 815 
Q 2006 756 2150 756 
Q 2500 756 2700 1025 
Q 2900 1294 2900 1772 
L 2900 3500 
L 4019 3500 
L 4019 0 
L 2900 0 
L 2900 506 
Q 2647 200 2364 54 
Q 2081 -91 1741 -91 
Q 1134 -91 817 281 
Q 500 653 500 1363 
z
" transform="scale(0.015625)"/>
      <path id="DejaVuSans-Bold-70" d="M 1656 506 
L 1656 -1331 
L 538 -1331 
L 538 3500 
L 1656 3500 
L 1656 2988 
Q 1888 3294 2169 3439 
Q 2450 3584 2816 3584 
Q 3463 3584 3878 3070 
Q 4294 2556 4294 1747 
Q 4294 938 3878 423 
Q 3463 -91 2816 -91 
Q 2450 -91 2169 54 
Q 1888 200 1656 506 
z
M 2400 2772 
Q 2041 2772 1848 2508 
Q 1656 2244 1656 1747 
Q 1656 1250 1848 986 
Q 2041 722 2400 722 
Q 2759 722 2948 984 
Q 3138 1247 3138 1747 
Q 3138 2247 2948 2509 
Q 2759 2772 2400 2772 
z
" transform="scale(0.015625)"/>
     </defs>
     <use xlink:href="#DejaVuSans-Bold-61"/>
     <use xlink:href="#DejaVuSans-Bold-72" transform="translate(67.480469 0)"/>
     <use xlink:href="#DejaVuSans-Bold-72" transform="translate(116.796875 0)"/>
     <use xlink:href="#DejaVuSans-Bold-61" transform="translate(166.113281 0)"/>
     <use xlink:href="#DejaVuSans-Bold-79" transform="translate(230.46875 0)"/>
     <use xlink:href="#DejaVuSans-Bold-20" transform="translate(295.654297 0)"/>
     <use xlink:href="#DejaVuSans-Bold-73" transform="translate(330.46875 0)"/>
     <use xlink:href="#DejaVuSans-Bold-65" transform="translate(389.990234 0)"/>
     <use xlink:href="#DejaVuSans-Bold-74" transform="translate(457.8125 0)"/>
     <use xlink:href="#DejaVuSans-Bold-75" transform="translate(505.615234 0)"/>
     <use xlink:href="#DejaVuSans-Bold-70" transform="translate(576.806641 0)"/>
    </g>
   </g>
   <g id="text_3">
    <!-- calibrators -->
    <g style="fill: #ffffff" transform="translate(208.950308 103.225837) scale(0.09 -0.09)">
     <defs>
      <path id="DejaVuSans-Bold-62" d="M 2400 722 
Q 2759 722 2948 984 
Q 3138 1247 3138 1747 
Q 3138 2247 2948 2509 
Q 2759 2772 2400 2772 
Q 2041 2772 1848 2508 
Q 1656 2244 1656 1747 
Q 1656 1250 1848 986 
Q 2041 722 2400 722 
z
M 1656 2988 
Q 1888 3294 2169 3439 
Q 2450 3584 2816 3584 
Q 3463 3584 3878 3070 
Q 4294 2556 4294 1747 
Q 4294 938 3878 423 
Q 3463 -91 2816 -91 
Q 2450 -91 2169 54 
Q 1888 200 1656 506 
L 1656 0 
L 538 0 
L 538 4863 
L 1656 4863 
L 1656 2988 
z
" transform="scale(0.015625)"/>
     </defs>
     <use xlink:href="#DejaVuSans-Bold-63"/>
     <use xlink:href="#DejaVuSans-Bold-61" transform="translate(59.277344 0)"/>
     <use xlink:href="#DejaVuSans-Bold-6c" transform="translate(126.757812 0)"/>
     <use xlink:href="#DejaVuSans-Bold-69" transform="translate(161.035156 0)"/>
     <use xlink:href="#DejaVuSans-Bold-62" transform="translate(195.3125 0)"/>
     <use xlink:href="#DejaVuSans-Bold-72" transform="translate(266.894531 0)"/>
     <use xlink:href="#DejaVuSans-Bold-61" transform="translate(316.210938 0)"/>
     <use xlink:href="#DejaVuSans-Bold-74" transform="translate(383.691406 0)"/>
     <use xlink:href="#DejaVuSans-Bold-6f" transform="translate(431.494141 0)"/>
     <use xlink:href="#DejaVuSans-Bold-72" transform="translate(500.195312 0)"/>
     <use xlink:href="#DejaVuSans-Bold-73" transform="translate(549.511719 0)"/>
    </g>
   </g>
   <g id="text_4">
    <!-- observe -->
    <g style="fill: #ffffff" transform="translate(306.382681 103.225837) scale(0.09 -0.09)">
     <defs>
      <path id="DejaVuSans-Bold-76" d="M 97 3500 
L 1216 3500 
L 2088 1081 
L 2956 3500 
L 4078 3500 
L 2700 0 
L 1472 0 
L 97 3500 
z
" transform="scale(0.015625)"/>
     </defs>
     <use xlink:href="#DejaVuSans-Bold-6f"/>
     <use xlink:href="#DejaVuSans-Bold-62" transform="translate(68.701172 0)"/>
     <use xlink:href="#DejaVuSans-Bold-73" transform="translate(140.283203 0)"/>
     <use xlink:href="#DejaVuSans-Bold-65" transform="translate(199.804688 0)"/>
     <use xlink:href="#DejaVuSans-Bold-72" transform="translate(267.626953 0)"/>
     <use xlink:href="#DejaVuSans-Bold-76" transform="translate(316.943359 0)"/>
     <use xlink:href="#DejaVuSans-Bold-65" transform="translate(382.128906 0)"/>
    </g>
   </g>
   <g id="text_5">
    <!-- flag bad data -->
    <g style="fill: #ffffff" transform="translate(383.089038 103.190681) scale(0.09 -0.09)">
     <defs>
      <path id="DejaVuSans-Bold-66" d="M 2841 4863 
L 2841 4128 
L 2222 4128 
Q 1984 4128 1890 4042 
Q 1797 3956 1797 3744 
L 1797 3500 
L 2753 3500 
L 2753 2700 
L 1797 2700 
L 1797 0 
L 678 0 
L 678 2700 
L 122 2700 
L 122 3500 
L 678 3500 
L 678 3744 
Q 678 4316 997 4589 
Q 1316 4863 1984 4863 
L 2841 4863 
z
" transform="scale(0.015625)"/>
      <path id="DejaVuSans-Bold-64" d="M 2919 2988 
L 2919 4863 
L 4044 4863 
L 4044 0 
L 2919 0 
L 2919 506 
Q 2688 197 2409 53 
Q 2131 -91 1766 -91 
Q 1119 -91 703 423 
Q 288 938 288 1747 
Q 288 2556 703 3070 
Q 1119 3584 1766 3584 
Q 2128 3584 2408 3439 
Q 2688 3294 2919 2988 
z
M 2181 722 
Q 2541 722 2730 984 
Q 2919 1247 2919 1747 
Q 2919 2247 2730 2509 
Q 2541 2772 2181 2772 
Q 1825 2772 1636 2509 
Q 1447 2247 1447 1747 
Q 1447 1247 1636 984 
Q 1825 722 2181 722 
z
" transform="scale(0.015625)"/>
     </defs>
     <use xlink:href="#DejaVuSans-Bold-66"/>
     <use xlink:href="#DejaVuSans-Bold-6c" transform="translate(43.505859 0)"/>
     <use xlink:href="#DejaVuSans-Bold-61" transform="translate(77.783203 0)"/>
     <use xlink:href="#DejaVuSans-Bold-67" transform="translate(145.263672 0)"/>
     <use xlink:href="#DejaVuSans-Bold-20" transform="translate(216.845703 0)"/>
     <use xlink:href="#DejaVuSans-Bold-62" transform="translate(251.660156 0)"/>
     <use xlink:href="#DejaVuSans-Bold-61" transform="translate(323.242188 0)"/>
     <use xlink:href="#DejaVuSans-Bold-64" transform="translate(390.722656 0)"/>
     <use xlink:href="#DejaVuSans-Bold-20" transform="translate(462.304688 0)"/>
     <use xlink:href="#DejaVuSans-Bold-64" transform="translate(497.119141 0)"/>
     <use xlink:href="#DejaVuSans-Bold-61" transform="translate(568.701172 0)"/>
     <use xlink:href="#DejaVuSans-Bold-74" transform="translate(636.181641 0)"/>
     <use xlink:href="#DejaVuSans-Bold-61" transform="translate(683.984375 0)"/>
    </g>
   </g>
   <g id="text_6">
    <!-- solve gains -->
    <g style="fill: #ffffff" transform="translate(478.631411 103.190681) scale(0.09 -0.09)">
     <use xlink:href="#DejaVuSans-Bold-73"/>
     <use xlink:href="#DejaVuSans-Bold-6f" transform="translate(59.521484 0)"/>
     <use xlink:href="#DejaVuSans-Bold-6c" transform="translate(128.222656 0)"/>
     <use xlink:href="#DejaVuSans-Bold-76" transform="translate(162.5 0)"/>
     <use xlink:href="#DejaVuSans-Bold-65" transform="translate(227.685547 0)"/>
     <use xlink:href="#DejaVuSans-Bold-20" transform="translate(295.507812 0)"/>
     <use xlink:href="#DejaVuSans-Bold-67" transform="translate(330.322266 0)"/>
     <use xlink:href="#DejaVuSans-Bold-61" transform="translate(401.904297 0)"/>
     <use xlink:href="#DejaVuSans-Bold-69" transform="translate(469.384766 0)"/>
     <use xlink:href="#DejaVuSans-Bold-6e" transform="translate(503.662109 0)"/>
     <use xlink:href="#DejaVuSans-Bold-73" transform="translate(574.853516 0)"/>
    </g>
   </g>
   <g id="text_7">
    <!-- image / CLEAN -->
    <g style="fill: #ffffff" transform="translate(560.640737 103.190681) scale(0.09 -0.09)">
     <defs>
      <path id="DejaVuSans-Bold-6d" d="M 3781 2919 
Q 3994 3244 4286 3414 
Q 4578 3584 4928 3584 
Q 5531 3584 5847 3212 
Q 6163 2841 6163 2131 
L 6163 0 
L 5038 0 
L 5038 1825 
Q 5041 1866 5042 1909 
Q 5044 1953 5044 2034 
Q 5044 2406 4934 2573 
Q 4825 2741 4581 2741 
Q 4263 2741 4089 2478 
Q 3916 2216 3909 1719 
L 3909 0 
L 2784 0 
L 2784 1825 
Q 2784 2406 2684 2573 
Q 2584 2741 2328 2741 
Q 2006 2741 1831 2477 
Q 1656 2213 1656 1722 
L 1656 0 
L 531 0 
L 531 3500 
L 1656 3500 
L 1656 2988 
Q 1863 3284 2130 3434 
Q 2397 3584 2719 3584 
Q 3081 3584 3359 3409 
Q 3638 3234 3781 2919 
z
" transform="scale(0.015625)"/>
      <path id="DejaVuSans-Bold-2f" d="M 1644 4666 
L 2338 4666 
L 691 -594 
L 0 -594 
L 1644 4666 
z
" transform="scale(0.015625)"/>
      <path id="DejaVuSans-Bold-43" d="M 4288 256 
Q 3956 84 3597 -3 
Q 3238 -91 2847 -91 
Q 1681 -91 1000 561 
Q 319 1213 319 2328 
Q 319 3447 1000 4098 
Q 1681 4750 2847 4750 
Q 3238 4750 3597 4662 
Q 3956 4575 4288 4403 
L 4288 3438 
Q 3953 3666 3628 3772 
Q 3303 3878 2944 3878 
Q 2300 3878 1931 3465 
Q 1563 3053 1563 2328 
Q 1563 1606 1931 1193 
Q 2300 781 2944 781 
Q 3303 781 3628 887 
Q 3953 994 4288 1222 
L 4288 256 
z
" transform="scale(0.015625)"/>
      <path id="DejaVuSans-Bold-4c" d="M 588 4666 
L 1791 4666 
L 1791 909 
L 3903 909 
L 3903 0 
L 588 0 
L 588 4666 
z
" transform="scale(0.015625)"/>
      <path id="DejaVuSans-Bold-45" d="M 588 4666 
L 3834 4666 
L 3834 3756 
L 1791 3756 
L 1791 2888 
L 3713 2888 
L 3713 1978 
L 1791 1978 
L 1791 909 
L 3903 909 
L 3903 0 
L 588 0 
L 588 4666 
z
" transform="scale(0.015625)"/>
      <path id="DejaVuSans-Bold-41" d="M 3419 850 
L 1538 850 
L 1241 0 
L 31 0 
L 1759 4666 
L 3194 4666 
L 4922 0 
L 3713 0 
L 3419 850 
z
M 1838 1716 
L 3116 1716 
L 2478 3572 
L 1838 1716 
z
" transform="scale(0.015625)"/>
      <path id="DejaVuSans-Bold-4e" d="M 588 4666 
L 1931 4666 
L 3628 1466 
L 3628 4666 
L 4769 4666 
L 4769 0 
L 3425 0 
L 1728 3200 
L 1728 0 
L 588 0 
L 588 4666 
z
" transform="scale(0.015625)"/>
     </defs>
     <use xlink:href="#DejaVuSans-Bold-69"/>
     <use xlink:href="#DejaVuSans-Bold-6d" transform="translate(34.277344 0)"/>
     <use xlink:href="#DejaVuSans-Bold-61" transform="translate(138.476562 0)"/>
     <use xlink:href="#DejaVuSans-Bold-67" transform="translate(205.957031 0)"/>
     <use xlink:href="#DejaVuSans-Bold-65" transform="translate(277.539062 0)"/>
     <use xlink:href="#DejaVuSans-Bold-20" transform="translate(345.361328 0)"/>
     <use xlink:href="#DejaVuSans-Bold-2f" transform="translate(380.175781 0)"/>
     <use xlink:href="#DejaVuSans-Bold-20" transform="translate(416.699219 0)"/>
     <use xlink:href="#DejaVuSans-Bold-43" transform="translate(451.513672 0)"/>
     <use xlink:href="#DejaVuSans-Bold-4c" transform="translate(524.902344 0)"/>
     <use xlink:href="#DejaVuSans-Bold-45" transform="translate(588.623047 0)"/>
     <use xlink:href="#DejaVuSans-Bold-41" transform="translate(656.933594 0)"/>
     <use xlink:href="#DejaVuSans-Bold-4e" transform="translate(734.326172 0)"/>
    </g>
   </g>
   <g id="text_8">
    <!-- validate -->
    <g style="fill: #ffffff" transform="translate(667.209516 103.225837) scale(0.09 -0.09)">
     <use xlink:href="#DejaVuSans-Bold-76"/>
     <use xlink:href="#DejaVuSans-Bold-61" transform="translate(65.185547 0)"/>
     <use xlink:href="#DejaVuSans-Bold-6c" transform="translate(132.666016 0)"/>
     <use xlink:href="#DejaVuSans-Bold-69" transform="translate(166.943359 0)"/>
     <use xlink:href="#DejaVuSans-Bold-64" transform="translate(201.220703 0)"/>
     <use xlink:href="#DejaVuSans-Bold-61" transform="translate(272.802734 0)"/>
     <use xlink:href="#DejaVuSans-Bold-74" transform="translate(340.283203 0)"/>
     <use xlink:href="#DejaVuSans-Bold-65" transform="translate(388.085938 0)"/>
    </g>
   </g>
   <g id="text_9">
    <!-- radio interferometry is not one image-taking step; it is a calibrated chain from question to trustworthy map -->
    <g style="fill: #333333" transform="translate(75.821953 172.5696) scale(0.11 -0.11)">
     <defs>
      <path id="DejaVuSans-72" d="M 2631 2963 
Q 2534 3019 2420 3045 
Q 2306 3072 2169 3072 
Q 1681 3072 1420 2755 
Q 1159 2438 1159 1844 
L 1159 0 
L 581 0 
L 581 3500 
L 1159 3500 
L 1159 2956 
Q 1341 3275 1631 3429 
Q 1922 3584 2338 3584 
Q 2397 3584 2469 3576 
Q 2541 3569 2628 3553 
L 2631 2963 
z
" transform="scale(0.015625)"/>
      <path id="DejaVuSans-61" d="M 2194 1759 
Q 1497 1759 1228 1600 
Q 959 1441 959 1056 
Q 959 750 1161 570 
Q 1363 391 1709 391 
Q 2188 391 2477 730 
Q 2766 1069 2766 1631 
L 2766 1759 
L 2194 1759 
z
M 3341 1997 
L 3341 0 
L 2766 0 
L 2766 531 
Q 2569 213 2275 61 
Q 1981 -91 1556 -91 
Q 1019 -91 701 211 
Q 384 513 384 1019 
Q 384 1609 779 1909 
Q 1175 2209 1959 2209 
L 2766 2209 
L 2766 2266 
Q 2766 2663 2505 2880 
Q 2244 3097 1772 3097 
Q 1472 3097 1187 3025 
Q 903 2953 641 2809 
L 641 3341 
Q 956 3463 1253 3523 
Q 1550 3584 1831 3584 
Q 2591 3584 2966 3190 
Q 3341 2797 3341 1997 
z
" transform="scale(0.015625)"/>
      <path id="DejaVuSans-64" d="M 2906 2969 
L 2906 4863 
L 3481 4863 
L 3481 0 
L 2906 0 
L 2906 525 
Q 2725 213 2448 61 
Q 2172 -91 1784 -91 
Q 1150 -91 751 415 
Q 353 922 353 1747 
Q 353 2572 751 3078 
Q 1150 3584 1784 3584 
Q 2172 3584 2448 3432 
Q 2725 3281 2906 2969 
z
M 947 1747 
Q 947 1113 1208 752 
Q 1469 391 1925 391 
Q 2381 391 2643 752 
Q 2906 1113 2906 1747 
Q 2906 2381 2643 2742 
Q 2381 3103 1925 3103 
Q 1469 3103 1208 2742 
Q 947 2381 947 1747 
z
" transform="scale(0.015625)"/>
      <path id="DejaVuSans-69" d="M 603 3500 
L 1178 3500 
L 1178 0 
L 603 0 
L 603 3500 
z
M 603 4863 
L 1178 4863 
L 1178 4134 
L 603 4134 
L 603 4863 
z
" transform="scale(0.015625)"/>
      <path id="DejaVuSans-6f" d="M 1959 3097 
Q 1497 3097 1228 2736 
Q 959 2375 959 1747 
Q 959 1119 1226 758 
Q 1494 397 1959 397 
Q 2419 397 2687 759 
Q 2956 1122 2956 1747 
Q 2956 2369 2687 2733 
Q 2419 3097 1959 3097 
z
M 1959 3584 
Q 2709 3584 3137 3096 
Q 3566 2609 3566 1747 
Q 3566 888 3137 398 
Q 2709 -91 1959 -91 
Q 1206 -91 779 398 
Q 353 888 353 1747 
Q 353 2609 779 3096 
Q 1206 3584 1959 3584 
z
" transform="scale(0.015625)"/>
      <path id="DejaVuSans-20" transform="scale(0.015625)"/>
      <path id="DejaVuSans-6e" d="M 3513 2113 
L 3513 0 
L 2938 0 
L 2938 2094 
Q 2938 2591 2744 2837 
Q 2550 3084 2163 3084 
Q 1697 3084 1428 2787 
Q 1159 2491 1159 1978 
L 1159 0 
L 581 0 
L 581 3500 
L 1159 3500 
L 1159 2956 
Q 1366 3272 1645 3428 
Q 1925 3584 2291 3584 
Q 2894 3584 3203 3211 
Q 3513 2838 3513 2113 
z
" transform="scale(0.015625)"/>
      <path id="DejaVuSans-74" d="M 1172 4494 
L 1172 3500 
L 2356 3500 
L 2356 3053 
L 1172 3053 
L 1172 1153 
Q 1172 725 1289 603 
Q 1406 481 1766 481 
L 2356 481 
L 2356 0 
L 1766 0 
Q 1100 0 847 248 
Q 594 497 594 1153 
L 594 3053 
L 172 3053 
L 172 3500 
L 594 3500 
L 594 4494 
L 1172 4494 
z
" transform="scale(0.015625)"/>
      <path id="DejaVuSans-65" d="M 3597 1894 
L 3597 1613 
L 953 1613 
Q 991 1019 1311 708 
Q 1631 397 2203 397 
Q 2534 397 2845 478 
Q 3156 559 3463 722 
L 3463 178 
Q 3153 47 2828 -22 
Q 2503 -91 2169 -91 
Q 1331 -91 842 396 
Q 353 884 353 1716 
Q 353 2575 817 3079 
Q 1281 3584 2069 3584 
Q 2775 3584 3186 3129 
Q 3597 2675 3597 1894 
z
M 3022 2063 
Q 3016 2534 2758 2815 
Q 2500 3097 2075 3097 
Q 1594 3097 1305 2825 
Q 1016 2553 972 2059 
L 3022 2063 
z
" transform="scale(0.015625)"/>
      <path id="DejaVuSans-66" d="M 2375 4863 
L 2375 4384 
L 1825 4384 
Q 1516 4384 1395 4259 
Q 1275 4134 1275 3809 
L 1275 3500 
L 2222 3500 
L 2222 3053 
L 1275 3053 
L 1275 0 
L 697 0 
L 697 3053 
L 147 3053 
L 147 3500 
L 697 3500 
L 697 3744 
Q 697 4328 969 4595 
Q 1241 4863 1831 4863 
L 2375 4863 
z
" transform="scale(0.015625)"/>
      <path id="DejaVuSans-6d" d="M 3328 2828 
Q 3544 3216 3844 3400 
Q 4144 3584 4550 3584 
Q 5097 3584 5394 3201 
Q 5691 2819 5691 2113 
L 5691 0 
L 5113 0 
L 5113 2094 
Q 5113 2597 4934 2840 
Q 4756 3084 4391 3084 
Q 3944 3084 3684 2787 
Q 3425 2491 3425 1978 
L 3425 0 
L 2847 0 
L 2847 2094 
Q 2847 2600 2669 2842 
Q 2491 3084 2119 3084 
Q 1678 3084 1418 2786 
Q 1159 2488 1159 1978 
L 1159 0 
L 581 0 
L 581 3500 
L 1159 3500 
L 1159 2956 
Q 1356 3278 1631 3431 
Q 1906 3584 2284 3584 
Q 2666 3584 2933 3390 
Q 3200 3197 3328 2828 
z
" transform="scale(0.015625)"/>
      <path id="DejaVuSans-79" d="M 2059 -325 
Q 1816 -950 1584 -1140 
Q 1353 -1331 966 -1331 
L 506 -1331 
L 506 -850 
L 844 -850 
Q 1081 -850 1212 -737 
Q 1344 -625 1503 -206 
L 1606 56 
L 191 3500 
L 800 3500 
L 1894 763 
L 2988 3500 
L 3597 3500 
L 2059 -325 
z
" transform="scale(0.015625)"/>
      <path id="DejaVuSans-73" d="M 2834 3397 
L 2834 2853 
Q 2591 2978 2328 3040 
Q 2066 3103 1784 3103 
Q 1356 3103 1142 2972 
Q 928 2841 928 2578 
Q 928 2378 1081 2264 
Q 1234 2150 1697 2047 
L 1894 2003 
Q 2506 1872 2764 1633 
Q 3022 1394 3022 966 
Q 3022 478 2636 193 
Q 2250 -91 1575 -91 
Q 1294 -91 989 -36 
Q 684 19 347 128 
L 347 722 
Q 666 556 975 473 
Q 1284 391 1588 391 
Q 1994 391 2212 530 
Q 2431 669 2431 922 
Q 2431 1156 2273 1281 
Q 2116 1406 1581 1522 
L 1381 1569 
Q 847 1681 609 1914 
Q 372 2147 372 2553 
Q 372 3047 722 3315 
Q 1072 3584 1716 3584 
Q 2034 3584 2315 3537 
Q 2597 3491 2834 3397 
z
" transform="scale(0.015625)"/>
      <path id="DejaVuSans-67" d="M 2906 1791 
Q 2906 2416 2648 2759 
Q 2391 3103 1925 3103 
Q 1463 3103 1205 2759 
Q 947 2416 947 1791 
Q 947 1169 1205 825 
Q 1463 481 1925 481 
Q 2391 481 2648 825 
Q 2906 1169 2906 1791 
z
M 3481 434 
Q 3481 -459 3084 -895 
Q 2688 -1331 1869 -1331 
Q 1566 -1331 1297 -1286 
Q 1028 -1241 775 -1147 
L 775 -588 
Q 1028 -725 1275 -790 
Q 1522 -856 1778 -856 
Q 2344 -856 2625 -561 
Q 2906 -266 2906 331 
L 2906 616 
Q 2728 306 2450 153 
Q 2172 0 1784 0 
Q 1141 0 747 490 
Q 353 981 353 1791 
Q 353 2603 747 3093 
Q 1141 3584 1784 3584 
Q 2172 3584 2450 3431 
Q 2728 3278 2906 2969 
L 2906 3500 
L 3481 3500 
L 3481 434 
z
" transform="scale(0.015625)"/>
      <path id="DejaVuSans-2d" d="M 313 2009 
L 1997 2009 
L 1997 1497 
L 313 1497 
L 313 2009 
z
" transform="scale(0.015625)"/>
      <path id="DejaVuSans-6b" d="M 581 4863 
L 1159 4863 
L 1159 1991 
L 2875 3500 
L 3609 3500 
L 1753 1863 
L 3688 0 
L 2938 0 
L 1159 1709 
L 1159 0 
L 581 0 
L 581 4863 
z
" transform="scale(0.015625)"/>
      <path id="DejaVuSans-70" d="M 1159 525 
L 1159 -1331 
L 581 -1331 
L 581 3500 
L 1159 3500 
L 1159 2969 
Q 1341 3281 1617 3432 
Q 1894 3584 2278 3584 
Q 2916 3584 3314 3078 
Q 3713 2572 3713 1747 
Q 3713 922 3314 415 
Q 2916 -91 2278 -91 
Q 1894 -91 1617 61 
Q 1341 213 1159 525 
z
M 3116 1747 
Q 3116 2381 2855 2742 
Q 2594 3103 2138 3103 
Q 1681 3103 1420 2742 
Q 1159 2381 1159 1747 
Q 1159 1113 1420 752 
Q 1681 391 2138 391 
Q 2594 391 2855 752 
Q 3116 1113 3116 1747 
z
" transform="scale(0.015625)"/>
      <path id="DejaVuSans-3b" d="M 750 3309 
L 1409 3309 
L 1409 2516 
L 750 2516 
L 750 3309 
z
M 750 794 
L 1409 794 
L 1409 256 
L 897 -744 
L 494 -744 
L 750 256 
L 750 794 
z
" transform="scale(0.015625)"/>
      <path id="DejaVuSans-63" d="M 3122 3366 
L 3122 2828 
Q 2878 2963 2633 3030 
Q 2388 3097 2138 3097 
Q 1578 3097 1268 2742 
Q 959 2388 959 1747 
Q 959 1106 1268 751 
Q 1578 397 2138 397 
Q 2388 397 2633 464 
Q 2878 531 3122 666 
L 3122 134 
Q 2881 22 2623 -34 
Q 2366 -91 2075 -91 
Q 1284 -91 818 406 
Q 353 903 353 1747 
Q 353 2603 823 3093 
Q 1294 3584 2113 3584 
Q 2378 3584 2631 3529 
Q 2884 3475 3122 3366 
z
" transform="scale(0.015625)"/>
      <path id="DejaVuSans-6c" d="M 603 4863 
L 1178 4863 
L 1178 0 
L 603 0 
L 603 4863 
z
" transform="scale(0.015625)"/>
      <path id="DejaVuSans-62" d="M 3116 1747 
Q 3116 2381 2855 2742 
Q 2594 3103 2138 3103 
Q 1681 3103 1420 2742 
Q 1159 2381 1159 1747 
Q 1159 1113 1420 752 
Q 1681 391 2138 391 
Q 2594 391 2855 752 
Q 3116 1113 3116 1747 
z
M 1159 2969 
Q 1341 3281 1617 3432 
Q 1894 3584 2278 3584 
Q 2916 3584 3314 3078 
Q 3713 2572 3713 1747 
Q 3713 922 3314 415 
Q 2916 -91 2278 -91 
Q 1894 -91 1617 61 
Q 1341 213 1159 525 
L 1159 0 
L 581 0 
L 581 4863 
L 1159 4863 
L 1159 2969 
z
" transform="scale(0.015625)"/>
      <path id="DejaVuSans-68" d="M 3513 2113 
L 3513 0 
L 2938 0 
L 2938 2094 
Q 2938 2591 2744 2837 
Q 2550 3084 2163 3084 
Q 1697 3084 1428 2787 
Q 1159 2491 1159 1978 
L 1159 0 
L 581 0 
L 581 4863 
L 1159 4863 
L 1159 2956 
Q 1366 3272 1645 3428 
Q 1925 3584 2291 3584 
Q 2894 3584 3203 3211 
Q 3513 2838 3513 2113 
z
" transform="scale(0.015625)"/>
      <path id="DejaVuSans-71" d="M 947 1747 
Q 947 1113 1208 752 
Q 1469 391 1925 391 
Q 2381 391 2643 752 
Q 2906 1113 2906 1747 
Q 2906 2381 2643 2742 
Q 2381 3103 1925 3103 
Q 1469 3103 1208 2742 
Q 947 2381 947 1747 
z
M 2906 525 
Q 2725 213 2448 61 
Q 2172 -91 1784 -91 
Q 1150 -91 751 415 
Q 353 922 353 1747 
Q 353 2572 751 3078 
Q 1150 3584 1784 3584 
Q 2172 3584 2448 3432 
Q 2725 3281 2906 2969 
L 2906 3500 
L 3481 3500 
L 3481 -1331 
L 2906 -1331 
L 2906 525 
z
" transform="scale(0.015625)"/>
      <path id="DejaVuSans-75" d="M 544 1381 
L 544 3500 
L 1119 3500 
L 1119 1403 
Q 1119 906 1312 657 
Q 1506 409 1894 409 
Q 2359 409 2629 706 
Q 2900 1003 2900 1516 
L 2900 3500 
L 3475 3500 
L 3475 0 
L 2900 0 
L 2900 538 
Q 2691 219 2414 64 
Q 2138 -91 1772 -91 
Q 1169 -91 856 284 
Q 544 659 544 1381 
z
M 1991 3584 
L 1991 3584 
z
" transform="scale(0.015625)"/>
      <path id="DejaVuSans-77" d="M 269 3500 
L 844 3500 
L 1563 769 
L 2278 3500 
L 2956 3500 
L 3675 769 
L 4391 3500 
L 4966 3500 
L 4050 0 
L 3372 0 
L 2619 2869 
L 1863 0 
L 1184 0 
L 269 3500 
z
" transform="scale(0.015625)"/>
     </defs>
     <use xlink:href="#DejaVuSans-72"/>
     <use xlink:href="#DejaVuSans-61" transform="translate(41.113281 0)"/>
     <use xlink:href="#DejaVuSans-64" transform="translate(102.392578 0)"/>
     <use xlink:href="#DejaVuSans-69" transform="translate(165.869141 0)"/>
     <use xlink:href="#DejaVuSans-6f" transform="translate(193.652344 0)"/>
     <use xlink:href="#DejaVuSans-20" transform="translate(254.833984 0)"/>
     <use xlink:href="#DejaVuSans-69" transform="translate(286.621094 0)"/>
     <use xlink:href="#DejaVuSans-6e" transform="translate(314.404297 0)"/>
     <use xlink:href="#DejaVuSans-74" transform="translate(377.783203 0)"/>
     <use xlink:href="#DejaVuSans-65" transform="translate(416.992188 0)"/>
     <use xlink:href="#DejaVuSans-72" transform="translate(478.515625 0)"/>
     <use xlink:href="#DejaVuSans-66" transform="translate(519.628906 0)"/>
     <use xlink:href="#DejaVuSans-65" transform="translate(554.833984 0)"/>
     <use xlink:href="#DejaVuSans-72" transform="translate(616.357422 0)"/>
     <use xlink:href="#DejaVuSans-6f" transform="translate(655.220703 0)"/>
     <use xlink:href="#DejaVuSans-6d" transform="translate(716.402344 0)"/>
     <use xlink:href="#DejaVuSans-65" transform="translate(813.814453 0)"/>
     <use xlink:href="#DejaVuSans-74" transform="translate(875.337891 0)"/>
     <use xlink:href="#DejaVuSans-72" transform="translate(914.546875 0)"/>
     <use xlink:href="#DejaVuSans-79" transform="translate(955.660156 0)"/>
     <use xlink:href="#DejaVuSans-20" transform="translate(1014.839844 0)"/>
     <use xlink:href="#DejaVuSans-69" transform="translate(1046.626953 0)"/>
     <use xlink:href="#DejaVuSans-73" transform="translate(1074.410156 0)"/>
     <use xlink:href="#DejaVuSans-20" transform="translate(1126.509766 0)"/>
     <use xlink:href="#DejaVuSans-6e" transform="translate(1158.296875 0)"/>
     <use xlink:href="#DejaVuSans-6f" transform="translate(1221.675781 0)"/>
     <use xlink:href="#DejaVuSans-74" transform="translate(1282.857422 0)"/>
     <use xlink:href="#DejaVuSans-20" transform="translate(1322.066406 0)"/>
     <use xlink:href="#DejaVuSans-6f" transform="translate(1353.853516 0)"/>
     <use xlink:href="#DejaVuSans-6e" transform="translate(1415.035156 0)"/>
     <use xlink:href="#DejaVuSans-65" transform="translate(1478.414062 0)"/>
     <use xlink:href="#DejaVuSans-20" transform="translate(1539.9375 0)"/>
     <use xlink:href="#DejaVuSans-69" transform="translate(1571.724609 0)"/>
     <use xlink:href="#DejaVuSans-6d" transform="translate(1599.507812 0)"/>
     <use xlink:href="#DejaVuSans-61" transform="translate(1696.919922 0)"/>
     <use xlink:href="#DejaVuSans-67" transform="translate(1758.199219 0)"/>
     <use xlink:href="#DejaVuSans-65" transform="translate(1821.675781 0)"/>
     <use xlink:href="#DejaVuSans-2d" transform="translate(1883.199219 0)"/>
     <use xlink:href="#DejaVuSans-74" transform="translate(1919.283203 0)"/>
     <use xlink:href="#DejaVuSans-61" transform="translate(1958.492188 0)"/>
     <use xlink:href="#DejaVuSans-6b" transform="translate(2019.771484 0)"/>
     <use xlink:href="#DejaVuSans-69" transform="translate(2077.681641 0)"/>
     <use xlink:href="#DejaVuSans-6e" transform="translate(2105.464844 0)"/>
     <use xlink:href="#DejaVuSans-67" transform="translate(2168.84375 0)"/>
     <use xlink:href="#DejaVuSans-20" transform="translate(2232.320312 0)"/>
     <use xlink:href="#DejaVuSans-73" transform="translate(2264.107422 0)"/>
     <use xlink:href="#DejaVuSans-74" transform="translate(2316.207031 0)"/>
     <use xlink:href="#DejaVuSans-65" transform="translate(2355.416016 0)"/>
     <use xlink:href="#DejaVuSans-70" transform="translate(2416.939453 0)"/>
     <use xlink:href="#DejaVuSans-3b" transform="translate(2480.416016 0)"/>
     <use xlink:href="#DejaVuSans-20" transform="translate(2514.107422 0)"/>
     <use xlink:href="#DejaVuSans-69" transform="translate(2545.894531 0)"/>
     <use xlink:href="#DejaVuSans-74" transform="translate(2573.677734 0)"/>
     <use xlink:href="#DejaVuSans-20" transform="translate(2612.886719 0)"/>
     <use xlink:href="#DejaVuSans-69" transform="translate(2644.673828 0)"/>
     <use xlink:href="#DejaVuSans-73" transform="translate(2672.457031 0)"/>
     <use xlink:href="#DejaVuSans-20" transform="translate(2724.556641 0)"/>
     <use xlink:href="#DejaVuSans-61" transform="translate(2756.34375 0)"/>
     <use xlink:href="#DejaVuSans-20" transform="translate(2817.623047 0)"/>
     <use xlink:href="#DejaVuSans-63" transform="translate(2849.410156 0)"/>
     <use xlink:href="#DejaVuSans-61" transform="translate(2904.390625 0)"/>
     <use xlink:href="#DejaVuSans-6c" transform="translate(2965.669922 0)"/>
     <use xlink:href="#DejaVuSans-69" transform="translate(2993.453125 0)"/>
     <use xlink:href="#DejaVuSans-62" transform="translate(3021.236328 0)"/>
     <use xlink:href="#DejaVuSans-72" transform="translate(3084.712891 0)"/>
     <use xlink:href="#DejaVuSans-61" transform="translate(3125.826172 0)"/>
     <use xlink:href="#DejaVuSans-74" transform="translate(3187.105469 0)"/>
     <use xlink:href="#DejaVuSans-65" transform="translate(3226.314453 0)"/>
     <use xlink:href="#DejaVuSans-64" transform="translate(3287.837891 0)"/>
     <use xlink:href="#DejaVuSans-20" transform="translate(3351.314453 0)"/>
     <use xlink:href="#DejaVuSans-63" transform="translate(3383.101562 0)"/>
     <use xlink:href="#DejaVuSans-68" transform="translate(3438.082031 0)"/>
     <use xlink:href="#DejaVuSans-61" transform="translate(3501.460938 0)"/>
     <use xlink:href="#DejaVuSans-69" transform="translate(3562.740234 0)"/>
     <use xlink:href="#DejaVuSans-6e" transform="translate(3590.523438 0)"/>
     <use xlink:href="#DejaVuSans-20" transform="translate(3653.902344 0)"/>
     <use xlink:href="#DejaVuSans-66" transform="translate(3685.689453 0)"/>
     <use xlink:href="#DejaVuSans-72" transform="translate(3720.894531 0)"/>
     <use xlink:href="#DejaVuSans-6f" transform="translate(3759.757812 0)"/>
     <use xlink:href="#DejaVuSans-6d" transform="translate(3820.939453 0)"/>
     <use xlink:href="#DejaVuSans-20" transform="translate(3918.351562 0)"/>
     <use xlink:href="#DejaVuSans-71" transform="translate(3950.138672 0)"/>
     <use xlink:href="#DejaVuSans-75" transform="translate(4013.615234 0)"/>
     <use xlink:href="#DejaVuSans-65" transform="translate(4076.994141 0)"/>
     <use xlink:href="#DejaVuSans-73" transform="translate(4138.517578 0)"/>
     <use xlink:href="#DejaVuSans-74" transform="translate(4190.617188 0)"/>
     <use xlink:href="#DejaVuSans-69" transform="translate(4229.826172 0)"/>
     <use xlink:href="#DejaVuSans-6f" transform="translate(4257.609375 0)"/>
     <use xlink:href="#DejaVuSans-6e" transform="translate(4318.791016 0)"/>
     <use xlink:href="#DejaVuSans-20" transform="translate(4382.169922 0)"/>
     <use xlink:href="#DejaVuSans-74" transform="translate(4413.957031 0)"/>
     <use xlink:href="#DejaVuSans-6f" transform="translate(4453.166016 0)"/>
     <use xlink:href="#DejaVuSans-20" transform="translate(4514.347656 0)"/>
     <use xlink:href="#DejaVuSans-74" transform="translate(4546.134766 0)"/>
     <use xlink:href="#DejaVuSans-72" transform="translate(4585.34375 0)"/>
     <use xlink:href="#DejaVuSans-75" transform="translate(4626.457031 0)"/>
     <use xlink:href="#DejaVuSans-73" transform="translate(4689.835938 0)"/>
     <use xlink:href="#DejaVuSans-74" transform="translate(4741.935547 0)"/>
     <use xlink:href="#DejaVuSans-77" transform="translate(4781.144531 0)"/>
     <use xlink:href="#DejaVuSans-6f" transform="translate(4862.931641 0)"/>
     <use xlink:href="#DejaVuSans-72" transform="translate(4924.113281 0)"/>
     <use xlink:href="#DejaVuSans-74" transform="translate(4965.226562 0)"/>
     <use xlink:href="#DejaVuSans-68" transform="translate(5004.435547 0)"/>
     <use xlink:href="#DejaVuSans-79" transform="translate(5067.814453 0)"/>
     <use xlink:href="#DejaVuSans-20" transform="translate(5126.994141 0)"/>
     <use xlink:href="#DejaVuSans-6d" transform="translate(5158.78125 0)"/>
     <use xlink:href="#DejaVuSans-61" transform="translate(5256.193359 0)"/>
     <use xlink:href="#DejaVuSans-70" transform="translate(5317.472656 0)"/>
    </g>
   </g>
  </g>
 </g>
 <defs>
  <clipPath id="p584eb990fd">
   <rect x="7.2" y="7.2" width="729.135" height="208.8"/>
  </clipPath>
 </defs>
</svg>
